<svg width="47" height="45" viewBox="0 0 47 45" fill="none" xmlns="http://www.w3.org/2000/svg">
<path d="M14.9583 17.4167L21.7917 3.16666C23.1509 3.16666 24.4545 3.6671 25.4156 4.5579C26.3767 5.4487 26.9167 6.65688 26.9167 7.91666V14.25H36.5858C37.0811 14.2448 37.5716 14.3395 38.0235 14.5274C38.4754 14.7154 38.8777 14.9922 39.2027 15.3386C39.5277 15.685 39.7676 16.0927 39.9057 16.5336C40.0438 16.9744 40.0768 17.4378 40.0025 17.8917L37.645 32.1417C37.5214 32.8968 37.1076 33.585 36.4797 34.0797C35.8519 34.5743 35.0523 34.842 34.2283 34.8333H14.9583M14.9583 17.4167V34.8333M14.9583 17.4167H9.83332C8.92717 17.4167 8.05812 17.7503 7.41737 18.3442C6.77663 18.938 6.41666 19.7435 6.41666 20.5833V31.6667C6.41666 32.5065 6.77663 33.312 7.41737 33.9058C8.05812 34.4997 8.92717 34.8333 9.83332 34.8333H14.9583" stroke="currentColor" stroke-width="4" stroke-linecap="round" stroke-linejoin="round"/>
</svg> 